<mxfile host="app.diagrams.net" modified="2024-07-06T00:07:55.028Z" agent="Mozilla/5.0 (Windows NT 10.0; Win64; x64) AppleWebKit/537.36 (KHTML, like Gecko) Chrome/126.0.0.0 Safari/537.36" etag="aYaXl5-EGIGBXLVi7G2s" version="24.6.4" type="github">
  <diagram name="PÃ¡gina-1" id="76HAJhtmkmuk8l9MemGc">
    <mxGraphModel dx="4284" dy="1243" grid="1" gridSize="10" guides="1" tooltips="1" connect="1" arrows="1" fold="1" page="1" pageScale="1" pageWidth="827" pageHeight="1169" math="0" shadow="0">
      <root>
        <mxCell id="0" />
        <mxCell id="1" parent="0" />
        <mxCell id="wOK-fUtBwsGr5-ql17yo-1" value="IUseCase" style="html=1;whiteSpace=wrap;" vertex="1" parent="1">
          <mxGeometry x="370" y="400" width="110" height="50" as="geometry" />
        </mxCell>
        <mxCell id="wOK-fUtBwsGr5-ql17yo-2" value="@Controller" style="html=1;dropTarget=0;whiteSpace=wrap;" vertex="1" parent="1">
          <mxGeometry x="-75" y="20" width="120" height="60" as="geometry" />
        </mxCell>
        <mxCell id="wOK-fUtBwsGr5-ql17yo-3" value="" style="shape=module;jettyWidth=8;jettyHeight=4;" vertex="1" parent="wOK-fUtBwsGr5-ql17yo-2">
          <mxGeometry x="1" width="20" height="20" relative="1" as="geometry">
            <mxPoint x="-27" y="7" as="offset" />
          </mxGeometry>
        </mxCell>
        <mxCell id="wOK-fUtBwsGr5-ql17yo-4" value="UseCase" style="swimlane;fontStyle=1;align=center;verticalAlign=top;childLayout=stackLayout;horizontal=1;startSize=26;horizontalStack=0;resizeParent=1;resizeParentMax=0;resizeLast=0;collapsible=1;marginBottom=0;whiteSpace=wrap;html=1;" vertex="1" parent="1">
          <mxGeometry x="710" y="400" width="125" height="86" as="geometry" />
        </mxCell>
        <mxCell id="wOK-fUtBwsGr5-ql17yo-5" value="+ field: type" style="text;strokeColor=none;fillColor=none;align=left;verticalAlign=top;spacingLeft=4;spacingRight=4;overflow=hidden;rotatable=0;points=[[0,0.5],[1,0.5]];portConstraint=eastwest;whiteSpace=wrap;html=1;" vertex="1" parent="wOK-fUtBwsGr5-ql17yo-4">
          <mxGeometry y="26" width="125" height="26" as="geometry" />
        </mxCell>
        <mxCell id="wOK-fUtBwsGr5-ql17yo-6" value="" style="line;strokeWidth=1;fillColor=none;align=left;verticalAlign=middle;spacingTop=-1;spacingLeft=3;spacingRight=3;rotatable=0;labelPosition=right;points=[];portConstraint=eastwest;strokeColor=inherit;" vertex="1" parent="wOK-fUtBwsGr5-ql17yo-4">
          <mxGeometry y="52" width="125" height="8" as="geometry" />
        </mxCell>
        <mxCell id="wOK-fUtBwsGr5-ql17yo-7" value="+ method(type): type" style="text;strokeColor=none;fillColor=none;align=left;verticalAlign=top;spacingLeft=4;spacingRight=4;overflow=hidden;rotatable=0;points=[[0,0.5],[1,0.5]];portConstraint=eastwest;whiteSpace=wrap;html=1;" vertex="1" parent="wOK-fUtBwsGr5-ql17yo-4">
          <mxGeometry y="60" width="125" height="26" as="geometry" />
        </mxCell>
        <mxCell id="wOK-fUtBwsGr5-ql17yo-10" value="" style="endArrow=block;dashed=1;endFill=0;endSize=12;html=1;rounded=0;entryX=1;entryY=0.5;entryDx=0;entryDy=0;edgeStyle=orthogonalEdgeStyle;" edge="1" parent="1" target="wOK-fUtBwsGr5-ql17yo-1">
          <mxGeometry width="160" relative="1" as="geometry">
            <mxPoint x="710" y="410" as="sourcePoint" />
            <mxPoint x="864" y="620" as="targetPoint" />
            <Array as="points">
              <mxPoint x="580" y="410" />
              <mxPoint x="580" y="425" />
            </Array>
          </mxGeometry>
        </mxCell>
        <mxCell id="wOK-fUtBwsGr5-ql17yo-11" value="IGateway" style="html=1;whiteSpace=wrap;" vertex="1" parent="1">
          <mxGeometry x="827" y="630" width="110" height="50" as="geometry" />
        </mxCell>
        <mxCell id="wOK-fUtBwsGr5-ql17yo-13" value="" style="endArrow=open;endSize=12;dashed=1;html=1;rounded=0;exitX=0.524;exitY=1.077;exitDx=0;exitDy=0;entryX=0;entryY=0.5;entryDx=0;entryDy=0;exitPerimeter=0;" edge="1" parent="1" source="wOK-fUtBwsGr5-ql17yo-7" target="wOK-fUtBwsGr5-ql17yo-11">
          <mxGeometry x="0.088" y="15" width="160" relative="1" as="geometry">
            <mxPoint x="855.5" y="549" as="sourcePoint" />
            <mxPoint x="977.5" y="725" as="targetPoint" />
            <mxPoint as="offset" />
            <Array as="points">
              <mxPoint x="780" y="655" />
            </Array>
          </mxGeometry>
        </mxCell>
        <mxCell id="wOK-fUtBwsGr5-ql17yo-15" value="GatewayImpl" style="swimlane;fontStyle=1;align=center;verticalAlign=top;childLayout=stackLayout;horizontal=1;startSize=26;horizontalStack=0;resizeParent=1;resizeParentMax=0;resizeLast=0;collapsible=1;marginBottom=0;whiteSpace=wrap;html=1;" vertex="1" parent="1">
          <mxGeometry x="819.5" y="840" width="125" height="86" as="geometry" />
        </mxCell>
        <mxCell id="wOK-fUtBwsGr5-ql17yo-16" value="+ field: type" style="text;strokeColor=none;fillColor=none;align=left;verticalAlign=top;spacingLeft=4;spacingRight=4;overflow=hidden;rotatable=0;points=[[0,0.5],[1,0.5]];portConstraint=eastwest;whiteSpace=wrap;html=1;" vertex="1" parent="wOK-fUtBwsGr5-ql17yo-15">
          <mxGeometry y="26" width="125" height="26" as="geometry" />
        </mxCell>
        <mxCell id="wOK-fUtBwsGr5-ql17yo-17" value="" style="line;strokeWidth=1;fillColor=none;align=left;verticalAlign=middle;spacingTop=-1;spacingLeft=3;spacingRight=3;rotatable=0;labelPosition=right;points=[];portConstraint=eastwest;strokeColor=inherit;" vertex="1" parent="wOK-fUtBwsGr5-ql17yo-15">
          <mxGeometry y="52" width="125" height="8" as="geometry" />
        </mxCell>
        <mxCell id="wOK-fUtBwsGr5-ql17yo-18" value="+ method(type): type" style="text;strokeColor=none;fillColor=none;align=left;verticalAlign=top;spacingLeft=4;spacingRight=4;overflow=hidden;rotatable=0;points=[[0,0.5],[1,0.5]];portConstraint=eastwest;whiteSpace=wrap;html=1;" vertex="1" parent="wOK-fUtBwsGr5-ql17yo-15">
          <mxGeometry y="60" width="125" height="26" as="geometry" />
        </mxCell>
        <mxCell id="wOK-fUtBwsGr5-ql17yo-19" value="" style="endArrow=block;dashed=1;endFill=0;endSize=12;html=1;rounded=0;exitX=0.5;exitY=0;exitDx=0;exitDy=0;entryX=0.5;entryY=1;entryDx=0;entryDy=0;" edge="1" parent="1" source="wOK-fUtBwsGr5-ql17yo-15" target="wOK-fUtBwsGr5-ql17yo-11">
          <mxGeometry width="160" relative="1" as="geometry">
            <mxPoint x="1237.5" y="830" as="sourcePoint" />
            <mxPoint x="1025" y="750" as="targetPoint" />
          </mxGeometry>
        </mxCell>
        <mxCell id="wOK-fUtBwsGr5-ql17yo-20" value="Entity" style="html=1;whiteSpace=wrap;" vertex="1" parent="1">
          <mxGeometry x="1090" y="390" width="110" height="50" as="geometry" />
        </mxCell>
        <mxCell id="wOK-fUtBwsGr5-ql17yo-23" value="Controller" style="swimlane;fontStyle=1;align=center;verticalAlign=top;childLayout=stackLayout;horizontal=1;startSize=26;horizontalStack=0;resizeParent=1;resizeParentMax=0;resizeLast=0;collapsible=1;marginBottom=0;whiteSpace=wrap;html=1;" vertex="1" parent="1">
          <mxGeometry x="-70" y="390" width="125" height="86" as="geometry" />
        </mxCell>
        <mxCell id="wOK-fUtBwsGr5-ql17yo-24" value="+ field: type" style="text;strokeColor=none;fillColor=none;align=left;verticalAlign=top;spacingLeft=4;spacingRight=4;overflow=hidden;rotatable=0;points=[[0,0.5],[1,0.5]];portConstraint=eastwest;whiteSpace=wrap;html=1;" vertex="1" parent="wOK-fUtBwsGr5-ql17yo-23">
          <mxGeometry y="26" width="125" height="26" as="geometry" />
        </mxCell>
        <mxCell id="wOK-fUtBwsGr5-ql17yo-25" value="" style="line;strokeWidth=1;fillColor=none;align=left;verticalAlign=middle;spacingTop=-1;spacingLeft=3;spacingRight=3;rotatable=0;labelPosition=right;points=[];portConstraint=eastwest;strokeColor=inherit;" vertex="1" parent="wOK-fUtBwsGr5-ql17yo-23">
          <mxGeometry y="52" width="125" height="8" as="geometry" />
        </mxCell>
        <mxCell id="wOK-fUtBwsGr5-ql17yo-26" value="+ method(type): type" style="text;strokeColor=none;fillColor=none;align=left;verticalAlign=top;spacingLeft=4;spacingRight=4;overflow=hidden;rotatable=0;points=[[0,0.5],[1,0.5]];portConstraint=eastwest;whiteSpace=wrap;html=1;" vertex="1" parent="wOK-fUtBwsGr5-ql17yo-23">
          <mxGeometry y="60" width="125" height="26" as="geometry" />
        </mxCell>
        <mxCell id="wOK-fUtBwsGr5-ql17yo-28" value="IPresenter" style="html=1;whiteSpace=wrap;" vertex="1" parent="1">
          <mxGeometry x="-70" y="550" width="110" height="50" as="geometry" />
        </mxCell>
        <mxCell id="wOK-fUtBwsGr5-ql17yo-30" value="JsonPresenter" style="swimlane;fontStyle=1;align=center;verticalAlign=top;childLayout=stackLayout;horizontal=1;startSize=26;horizontalStack=0;resizeParent=1;resizeParentMax=0;resizeLast=0;collapsible=1;marginBottom=0;whiteSpace=wrap;html=1;" vertex="1" parent="1">
          <mxGeometry x="-70" y="690" width="125" height="86" as="geometry" />
        </mxCell>
        <mxCell id="wOK-fUtBwsGr5-ql17yo-31" value="+ field: type" style="text;strokeColor=none;fillColor=none;align=left;verticalAlign=top;spacingLeft=4;spacingRight=4;overflow=hidden;rotatable=0;points=[[0,0.5],[1,0.5]];portConstraint=eastwest;whiteSpace=wrap;html=1;" vertex="1" parent="wOK-fUtBwsGr5-ql17yo-30">
          <mxGeometry y="26" width="125" height="26" as="geometry" />
        </mxCell>
        <mxCell id="wOK-fUtBwsGr5-ql17yo-32" value="" style="line;strokeWidth=1;fillColor=none;align=left;verticalAlign=middle;spacingTop=-1;spacingLeft=3;spacingRight=3;rotatable=0;labelPosition=right;points=[];portConstraint=eastwest;strokeColor=inherit;" vertex="1" parent="wOK-fUtBwsGr5-ql17yo-30">
          <mxGeometry y="52" width="125" height="8" as="geometry" />
        </mxCell>
        <mxCell id="wOK-fUtBwsGr5-ql17yo-33" value="+ method(type): type" style="text;strokeColor=none;fillColor=none;align=left;verticalAlign=top;spacingLeft=4;spacingRight=4;overflow=hidden;rotatable=0;points=[[0,0.5],[1,0.5]];portConstraint=eastwest;whiteSpace=wrap;html=1;" vertex="1" parent="wOK-fUtBwsGr5-ql17yo-30">
          <mxGeometry y="60" width="125" height="26" as="geometry" />
        </mxCell>
        <mxCell id="wOK-fUtBwsGr5-ql17yo-34" value="" style="endArrow=block;dashed=1;endFill=0;endSize=12;html=1;rounded=0;entryX=0.548;entryY=1.017;entryDx=0;entryDy=0;entryPerimeter=0;exitX=0.488;exitY=0.002;exitDx=0;exitDy=0;exitPerimeter=0;" edge="1" parent="1" source="wOK-fUtBwsGr5-ql17yo-30" target="wOK-fUtBwsGr5-ql17yo-28">
          <mxGeometry width="160" relative="1" as="geometry">
            <mxPoint x="-8" y="660" as="sourcePoint" />
            <mxPoint x="-10" y="570" as="targetPoint" />
          </mxGeometry>
        </mxCell>
        <mxCell id="wOK-fUtBwsGr5-ql17yo-35" value="Api" style="swimlane;fontStyle=1;align=center;verticalAlign=top;childLayout=stackLayout;horizontal=1;startSize=26;horizontalStack=0;resizeParent=1;resizeParentMax=0;resizeLast=0;collapsible=1;marginBottom=0;whiteSpace=wrap;html=1;" vertex="1" parent="1">
          <mxGeometry x="-77.5" y="190" width="125" height="60" as="geometry" />
        </mxCell>
        <mxCell id="wOK-fUtBwsGr5-ql17yo-36" value="+ field: type" style="text;strokeColor=none;fillColor=none;align=left;verticalAlign=top;spacingLeft=4;spacingRight=4;overflow=hidden;rotatable=0;points=[[0,0.5],[1,0.5]];portConstraint=eastwest;whiteSpace=wrap;html=1;" vertex="1" parent="wOK-fUtBwsGr5-ql17yo-35">
          <mxGeometry y="26" width="125" height="26" as="geometry" />
        </mxCell>
        <mxCell id="wOK-fUtBwsGr5-ql17yo-37" value="" style="line;strokeWidth=1;fillColor=none;align=left;verticalAlign=middle;spacingTop=-1;spacingLeft=3;spacingRight=3;rotatable=0;labelPosition=right;points=[];portConstraint=eastwest;strokeColor=inherit;" vertex="1" parent="wOK-fUtBwsGr5-ql17yo-35">
          <mxGeometry y="52" width="125" height="8" as="geometry" />
        </mxCell>
        <mxCell id="wOK-fUtBwsGr5-ql17yo-39" value="IRepositoryORM" style="html=1;whiteSpace=wrap;" vertex="1" parent="1">
          <mxGeometry x="1080" y="920" width="110" height="50" as="geometry" />
        </mxCell>
        <mxCell id="wOK-fUtBwsGr5-ql17yo-73" value="" style="edgeStyle=orthogonalEdgeStyle;rounded=0;orthogonalLoop=1;jettySize=auto;html=1;" edge="1" parent="1" source="wOK-fUtBwsGr5-ql17yo-47" target="wOK-fUtBwsGr5-ql17yo-1">
          <mxGeometry relative="1" as="geometry" />
        </mxCell>
        <mxCell id="wOK-fUtBwsGr5-ql17yo-47" value="RequestModel" style="html=1;whiteSpace=wrap;" vertex="1" parent="1">
          <mxGeometry x="370" y="306" width="110" height="50" as="geometry" />
        </mxCell>
        <mxCell id="wOK-fUtBwsGr5-ql17yo-74" value="" style="edgeStyle=orthogonalEdgeStyle;rounded=0;orthogonalLoop=1;jettySize=auto;html=1;" edge="1" parent="1" source="wOK-fUtBwsGr5-ql17yo-68" target="wOK-fUtBwsGr5-ql17yo-1">
          <mxGeometry relative="1" as="geometry" />
        </mxCell>
        <mxCell id="wOK-fUtBwsGr5-ql17yo-68" value="ResponseModel" style="html=1;whiteSpace=wrap;" vertex="1" parent="1">
          <mxGeometry x="370" y="500" width="110" height="50" as="geometry" />
        </mxCell>
        <mxCell id="wOK-fUtBwsGr5-ql17yo-91" value="DataMapper(ORM)" style="html=1;whiteSpace=wrap;" vertex="1" parent="1">
          <mxGeometry x="980" y="1010" width="110" height="50" as="geometry" />
        </mxCell>
        <mxCell id="wOK-fUtBwsGr5-ql17yo-92" value="" style="endArrow=open;endFill=1;endSize=12;html=1;rounded=0;entryX=0.5;entryY=1;entryDx=0;entryDy=0;exitX=0.5;exitY=0;exitDx=0;exitDy=0;" edge="1" parent="1" source="wOK-fUtBwsGr5-ql17yo-35" target="wOK-fUtBwsGr5-ql17yo-2">
          <mxGeometry width="160" relative="1" as="geometry">
            <mxPoint x="22.160000000000025" y="180" as="sourcePoint" />
            <mxPoint x="22.160000000000025" y="90" as="targetPoint" />
          </mxGeometry>
        </mxCell>
        <mxCell id="wOK-fUtBwsGr5-ql17yo-96" value="" style="endArrow=open;endFill=1;endSize=12;html=1;rounded=0;entryX=0.438;entryY=0;entryDx=0;entryDy=0;entryPerimeter=0;" edge="1" parent="1" target="wOK-fUtBwsGr5-ql17yo-23">
          <mxGeometry width="160" relative="1" as="geometry">
            <mxPoint x="-15.290000000000006" y="250" as="sourcePoint" />
            <mxPoint x="-15.290000000000006" y="340" as="targetPoint" />
          </mxGeometry>
        </mxCell>
        <mxCell id="wOK-fUtBwsGr5-ql17yo-97" value="" style="endArrow=open;endFill=1;endSize=12;html=1;rounded=0;entryX=0.5;entryY=0;entryDx=0;entryDy=0;" edge="1" parent="1" target="wOK-fUtBwsGr5-ql17yo-28">
          <mxGeometry width="160" relative="1" as="geometry">
            <mxPoint x="-15.250000000000007" y="476" as="sourcePoint" />
            <mxPoint x="-14.75" y="536" as="targetPoint" />
          </mxGeometry>
        </mxCell>
        <mxCell id="wOK-fUtBwsGr5-ql17yo-98" value="" style="endArrow=open;endFill=1;endSize=12;html=1;rounded=0;entryX=0;entryY=0.5;entryDx=0;entryDy=0;exitX=1;exitY=0.25;exitDx=0;exitDy=0;edgeStyle=orthogonalEdgeStyle;" edge="1" parent="1" source="wOK-fUtBwsGr5-ql17yo-23" target="wOK-fUtBwsGr5-ql17yo-47">
          <mxGeometry width="160" relative="1" as="geometry">
            <mxPoint x="170" y="390" as="sourcePoint" />
            <mxPoint x="170.29" y="530" as="targetPoint" />
          </mxGeometry>
        </mxCell>
        <mxCell id="wOK-fUtBwsGr5-ql17yo-99" value="" style="endArrow=open;endFill=1;endSize=12;html=1;rounded=0;entryX=0;entryY=0.5;entryDx=0;entryDy=0;edgeStyle=orthogonalEdgeStyle;" edge="1" parent="1" target="wOK-fUtBwsGr5-ql17yo-1">
          <mxGeometry width="160" relative="1" as="geometry">
            <mxPoint x="60" y="410" as="sourcePoint" />
            <mxPoint x="120.29" y="550" as="targetPoint" />
          </mxGeometry>
        </mxCell>
        <mxCell id="wOK-fUtBwsGr5-ql17yo-100" value="" style="endArrow=open;endFill=1;endSize=12;html=1;rounded=0;entryX=0;entryY=0.5;entryDx=0;entryDy=0;edgeStyle=orthogonalEdgeStyle;" edge="1" parent="1" target="wOK-fUtBwsGr5-ql17yo-68">
          <mxGeometry width="160" relative="1" as="geometry">
            <mxPoint x="60" y="410" as="sourcePoint" />
            <mxPoint x="170.29" y="570" as="targetPoint" />
          </mxGeometry>
        </mxCell>
        <mxCell id="wOK-fUtBwsGr5-ql17yo-101" value="" style="endArrow=open;endFill=1;endSize=12;html=1;rounded=0;entryX=1;entryY=0.5;entryDx=0;entryDy=0;exitX=0.5;exitY=0;exitDx=0;exitDy=0;edgeStyle=orthogonalEdgeStyle;" edge="1" parent="1" source="wOK-fUtBwsGr5-ql17yo-4" target="wOK-fUtBwsGr5-ql17yo-47">
          <mxGeometry width="160" relative="1" as="geometry">
            <mxPoint x="670" y="261" as="sourcePoint" />
            <mxPoint x="670.29" y="401" as="targetPoint" />
          </mxGeometry>
        </mxCell>
        <mxCell id="wOK-fUtBwsGr5-ql17yo-102" value="" style="endArrow=open;endFill=1;endSize=12;html=1;rounded=0;entryX=1;entryY=0.5;entryDx=0;entryDy=0;exitX=-0.004;exitY=0.119;exitDx=0;exitDy=0;exitPerimeter=0;edgeStyle=orthogonalEdgeStyle;" edge="1" parent="1" source="wOK-fUtBwsGr5-ql17yo-4" target="wOK-fUtBwsGr5-ql17yo-68">
          <mxGeometry width="160" relative="1" as="geometry">
            <mxPoint x="610" y="476" as="sourcePoint" />
            <mxPoint x="610.29" y="616" as="targetPoint" />
          </mxGeometry>
        </mxCell>
        <mxCell id="wOK-fUtBwsGr5-ql17yo-103" value="" style="endArrow=open;endFill=1;endSize=12;html=1;rounded=0;entryX=0;entryY=0.5;entryDx=0;entryDy=0;edgeStyle=orthogonalEdgeStyle;exitX=1;exitY=0.5;exitDx=0;exitDy=0;" edge="1" parent="1" source="wOK-fUtBwsGr5-ql17yo-28" target="wOK-fUtBwsGr5-ql17yo-68">
          <mxGeometry width="160" relative="1" as="geometry">
            <mxPoint x="70" y="597.5" as="sourcePoint" />
            <mxPoint x="380" y="712.5" as="targetPoint" />
          </mxGeometry>
        </mxCell>
        <mxCell id="wOK-fUtBwsGr5-ql17yo-105" value="" style="endArrow=open;endFill=1;endSize=12;html=1;rounded=0;entryX=0.5;entryY=1;entryDx=0;entryDy=0;exitX=1.012;exitY=0.16;exitDx=0;exitDy=0;exitPerimeter=0;edgeStyle=orthogonalEdgeStyle;" edge="1" parent="1" source="wOK-fUtBwsGr5-ql17yo-15" target="wOK-fUtBwsGr5-ql17yo-20">
          <mxGeometry width="160" relative="1" as="geometry">
            <mxPoint x="1010" y="650" as="sourcePoint" />
            <mxPoint x="1010.29" y="790" as="targetPoint" />
          </mxGeometry>
        </mxCell>
        <mxCell id="wOK-fUtBwsGr5-ql17yo-106" value="" style="endArrow=open;endFill=1;endSize=12;html=1;rounded=0;entryX=0.091;entryY=0.4;entryDx=0;entryDy=0;entryPerimeter=0;" edge="1" parent="1" target="wOK-fUtBwsGr5-ql17yo-20">
          <mxGeometry width="160" relative="1" as="geometry">
            <mxPoint x="840" y="410" as="sourcePoint" />
            <mxPoint x="970.29" y="540" as="targetPoint" />
          </mxGeometry>
        </mxCell>
      </root>
    </mxGraphModel>
  </diagram>
</mxfile>
